# xmcd CD database file
#
# Track frame offsets:
#	150
#	43778
#	80118
#	129607
#	139797
#	147707
#	165134
#	176169
#	214906
#	224734
#	252451
#	263553
#
# Disc length: 3934 seconds
#
# Revision: 0
# Processed by: cddbd v1.5.2PL0 Copyright (c) Steve Scherf et al.
# Submitted via: CDex 1.70beta2
#
DISCID=c20f5c0c
DTITLE=HDV Trio - Helbock Dietrich Vogel - Celebrating Modern Genius
DYEAR=2006
DGENRE=Jazz
TTITLE0=From Orange to Pink
TTITLE1=Pelorus Jack
TTITLE2=Nada Brahma
TTITLE3=Ein Stein in digitaler Landschaft: In Theorie
TTITLE4=Ein Stein in digitaler Landschaft: Diskussion
TTITLE5=Ein Stein in digitaler Landschaft: Pazifismus
TTITLE6=Ein Stein in digitaler Landschaft: Physik
TTITLE7=Bolivian Diary
TTITLE8=Beelzebub Intro
TTITLE9=Beelzebub Song
TTITLE10=Krishnamurti Intro
TTITLE11=Krishnamurti Song
EXTD=YEAR: 2006
EXTT0=
EXTT1=
EXTT2=
EXTT3=
EXTT4=
EXTT5=
EXTT6=
EXTT7=
EXTT8=
EXTT9=
EXTT10=
EXTT11=
PLAYORDER=
